<svg xmlns="http://www.w3.org/2000/svg" xmlns:xlink="http://www.w3.org/1999/xlink" width="800" zoomAndPan="magnify" viewBox="0 0 600 599.999999" height="800" preserveAspectRatio="xMidYMid meet" version="1.0"><path fill="#6942ff" d="M 184.03125 480 L 96.9375 480 L 96.9375 199.59375 L 184.03125 199.59375 Z M 140.4375 161.34375 C 112.59375 161.34375 90 138.28125 90 110.4375 C 90 97.03125 95.34375 84.28125 104.8125 74.8125 C 114.28125 65.34375 127.125 60 140.4375 60 C 153.75 60 166.59375 65.34375 176.0625 74.8125 C 185.53125 84.28125 190.875 97.125 190.875 110.4375 C 190.875 138.28125 168.28125 161.34375 140.4375 161.34375 Z M 509.90625 480 L 423 480 L 423 343.5 C 423 310.96875 422.34375 269.25 377.71875 269.25 C 332.4375 269.25 325.5 304.59375 325.5 341.15625 L 325.5 480 L 238.5 480 L 238.5 199.59375 L 322.03125 199.59375 L 322.03125 237.84375 L 323.25 237.84375 C 334.875 215.8125 363.28125 192.5625 405.65625 192.5625 C 493.78125 192.5625 510 250.59375 510 325.96875 L 510 480 Z M 509.90625 480 " fill-opacity="1" fill-rule="nonzero"/></svg>