<svg xmlns="http://www.w3.org/2000/svg" xmlns:xlink="http://www.w3.org/1999/xlink" width="800" zoomAndPan="magnify" viewBox="0 0 600 599.999999" height="800" preserveAspectRatio="xMidYMid meet" version="1.0"><defs><clipPath id="66486fd9d1"><path d="M 135 135 L 465 135 L 465 465 L 135 465 Z M 135 135 " clip-rule="nonzero"/></clipPath><clipPath id="873f076831"><path d="M 300 135 C 208.871094 135 135 208.871094 135 300 C 135 391.128906 208.871094 465 300 465 C 391.128906 465 465 391.128906 465 300 C 465 208.871094 391.128906 135 300 135 Z M 300 135 " clip-rule="nonzero"/></clipPath></defs><g clip-path="url(#66486fd9d1)"><g clip-path="url(#873f076831)"><path stroke-linecap="butt" transform="matrix(0.75, 0, 0, 0.75, 134.999995, 135.000014)" fill="none" stroke-linejoin="miter" d="M 220.000017 -0.0000189867 C 98.494803 -0.0000189867 0.00000728 98.494777 0.00000728 219.99999 C 0.00000728 341.505204 98.494803 440 220.000017 440 C 341.500022 440 440.000026 341.505204 440.000026 219.99999 C 440.000026 98.494777 341.500022 -0.0000189867 220.000017 -0.0000189867 Z M 220.000017 -0.0000189867 " stroke="#6942ff" stroke-width="30" stroke-opacity="1" stroke-miterlimit="4"/></g></g><path fill="#6942ff" d="M 253.613281 372 L 218.773438 372 L 218.773438 259.835938 L 253.613281 259.835938 Z M 236.175781 244.539062 C 225.039062 244.539062 216 235.3125 216 224.175781 C 216 218.8125 218.136719 213.710938 221.925781 209.925781 C 225.710938 206.136719 230.851562 204 236.175781 204 C 241.5 204 246.636719 206.136719 250.425781 209.925781 C 254.210938 213.710938 256.351562 218.851562 256.351562 224.175781 C 256.351562 235.3125 247.3125 244.539062 236.175781 244.539062 Z M 383.960938 372 L 349.199219 372 L 349.199219 317.398438 C 349.199219 304.386719 348.9375 287.699219 331.085938 287.699219 C 312.976562 287.699219 310.199219 301.835938 310.199219 316.460938 L 310.199219 372 L 275.398438 372 L 275.398438 259.835938 L 308.8125 259.835938 L 308.8125 275.136719 L 309.300781 275.136719 C 313.949219 266.324219 325.3125 257.023438 342.261719 257.023438 C 377.511719 257.023438 384 280.238281 384 310.386719 L 384 372 Z M 383.960938 372 " fill-opacity="1" fill-rule="nonzero"/></svg>