<svg xmlns="http://www.w3.org/2000/svg" xmlns:xlink="http://www.w3.org/1999/xlink" width="800" zoomAndPan="magnify" viewBox="0 0 600 599.999999" height="800" preserveAspectRatio="xMidYMid meet" version="1.0"><defs><clipPath id="160e5b08b4"><path d="M 135 135 L 465 135 L 465 465 L 135 465 Z M 135 135 " clip-rule="nonzero"/></clipPath><clipPath id="c0848d09bb"><path d="M 300 135 C 208.871094 135 135 208.871094 135 300 C 135 391.128906 208.871094 465 300 465 C 391.128906 465 465 391.128906 465 300 C 465 208.871094 391.128906 135 300 135 Z M 300 135 " clip-rule="nonzero"/></clipPath></defs><path fill="#6942ff" d="M 349.949219 222 L 376.425781 222 L 318.601562 288.074219 L 386.625 378 L 333.375 378 L 291.636719 323.476562 L 243.9375 378 L 217.425781 378 L 279.261719 307.3125 L 214.050781 222 L 268.648438 222 L 306.335938 271.835938 Z M 340.648438 362.175781 L 355.3125 362.175781 L 260.664062 237 L 244.914062 237 Z M 340.648438 362.175781 " fill-opacity="1" fill-rule="nonzero"/><g clip-path="url(#160e5b08b4)"><g clip-path="url(#c0848d09bb)"><path stroke-linecap="butt" transform="matrix(0.75, 0, 0, 0.75, 134.999995, 135.000014)" fill="none" stroke-linejoin="miter" d="M 220.000017 -0.0000189867 C 98.494803 -0.0000189867 0.00000728 98.494777 0.00000728 219.99999 C 0.00000728 341.505204 98.494803 440 220.000017 440 C 341.500022 440 440.000026 341.505204 440.000026 219.99999 C 440.000026 98.494777 341.500022 -0.0000189867 220.000017 -0.0000189867 Z M 220.000017 -0.0000189867 " stroke="#6942ff" stroke-width="30" stroke-opacity="1" stroke-miterlimit="4"/></g></g></svg>